<svg width="1440" height="622" viewBox="0 0 1440 622" fill="none" xmlns="http://www.w3.org/2000/svg">
<path d="M172.7 157.182C160.322 116.382 52.409 106.182 0 106.182V622H1440V0.181977C1390.59 -4.81802 1336.68 94.682 1305.23 118.182C1111.07 103.682 1100.09 215.182 1079.63 227.182C1059.16 239.182 1022.72 205.682 956.839 224.682C890.953 243.682 912.915 281.682 885.463 306.682C858.01 331.682 828.062 326.182 766.17 316.682C704.277 307.182 645.879 354.182 635.896 365.682C567.016 349.682 549.546 392.182 547.549 399.682C534.677 401.17 529.662 409.544 525.198 416.999L525.088 417.182C513.608 381.182 474.676 391.182 466.191 395.682C448.222 355.682 398.309 362.682 387.827 365.682C381.338 308.182 290.995 311.182 277.019 299.182C263.043 287.182 278.516 257.682 260.049 229.682C241.581 201.682 179.189 207.182 172.7 196.682C166.211 186.182 176.194 170.182 172.7 157.182Z" fill="url(#paint0_linear)"/>
<path d="M234.5 169.02C309.3 183.02 304 242.854 292 271.02C302 192.02 217.5 180.021 196.5 180.521C214.5 150.521 185 127.02 163 117.02C219 116.02 229 152.02 234.5 169.02Z" fill="url(#paint1_linear)"/>
<path d="M1048 196.389C924 175.989 873.333 256.889 863.5 299.889C825.5 175.389 1019.5 177.389 1037 180.889C1039.5 61.8885 1182 74.8887 1230.5 82.8887C1075.5 86.3887 1057 179.389 1048 196.389Z" fill="url(#paint2_linear)"/>
<path d="M1351 165C1270.6 150.6 1215.5 195.333 1198 219.5C1239 129.999 1316 147 1338.5 148.5C1354.5 117.5 1402 88.9998 1417.5 90.9998C1389 101 1368.5 152 1351 165Z" fill="white"/>
<path d="M565 402.5C576.667 395.5 605.1 382.8 625.5 388C619.5 383.5 584.5 371 565 402.5Z" fill="white"/>
<path d="M739 348.5C699 348.5 656 381.5 653.5 382.5C679.399 339.667 725.143 346.447 738.841 348.477L739 348.5Z" fill="white"/>
<path d="M901 386.5C840.2 368.1 801 398.5 789 416C808.5 357.5 880 366 895 372C955 274.5 1052.5 288.5 1093.5 296.5C964 282 911 373 901 386.5Z" fill="white"/>
<path d="M368.5 397.5C369.5 373.167 356.6 326.4 297 334C318 343.5 356.5 364 368.5 397.5Z" fill="white"/>
<path d="M132.5 211.5C203.7 225.9 211.833 278.833 207 303.5C189.5 233.5 132.5 228 122.5 224C107.5 176.5 74.5 171.5 49 164.5C109 159 123.5 195.5 132.5 211.5Z" fill="white"/>
<defs>
<linearGradient id="paint0_linear" x1="720" y1="0" x2="720" y2="546" gradientUnits="userSpaceOnUse">
<stop stop-color="#EEF4F4" stop-opacity="0"/>
<stop stop-color="white"/>
<stop offset="1" stop-color="#EEF4F4"/>
</linearGradient>
<linearGradient id="paint1_linear" x1="167" y1="117" x2="320.5" y2="254.5" gradientUnits="userSpaceOnUse">
<stop stop-color="#FAFCFC"/>
<stop offset="1" stop-color="#F6F9F9"/>
</linearGradient>
<linearGradient id="paint2_linear" x1="864.5" y1="300" x2="1252" y2="57.5" gradientUnits="userSpaceOnUse">
<stop stop-color="#F4F9F9"/>
<stop offset="0.96307" stop-color="#FDFDFD"/>
</linearGradient>
</defs>
</svg>
